<svg xmlns="http://www.w3.org/2000/svg" xmlns:xlink="http://www.w3.org/1999/xlink" width="500" zoomAndPan="magnify" viewBox="0 0 375 374.999991" height="500" preserveAspectRatio="xMidYMid meet" version="1.0"><path fill="#22a4f1" d="M 221.480469 300.058594 L 143.921875 283.054688 C 143.722656 283.003906 143.527344 282.957031 143.328125 282.855469 C 141.894531 282.511719 140.511719 281.964844 139.273438 281.324219 C 136.554688 280.039062 134.28125 278.210938 133.046875 276.035156 C 132.304688 274.75 131.5625 272.671875 132.304688 270.351562 C 133.195312 267.730469 135.8125 265.703125 139.226562 264.46875 C 140.460938 264.023438 141.84375 263.726562 143.277344 263.527344 C 144.121094 263.429688 144.859375 263.230469 145.75 263.230469 C 147.382812 263.230469 149.011719 263.429688 150.59375 263.773438 L 184.109375 271.140625 L 188.164062 272.03125 L 228.203125 280.78125 C 228.402344 280.828125 228.601562 280.929688 228.796875 280.976562 C 230.230469 281.324219 231.617188 281.867188 232.851562 282.460938 C 235.570312 283.796875 237.796875 285.574219 239.03125 287.75 C 239.773438 289.035156 240.515625 291.113281 239.773438 293.433594 C 238.882812 296.054688 236.261719 298.082031 232.851562 299.316406 C 230.875 300.011719 228.75 300.503906 226.375 300.503906 C 224.894531 300.503906 223.359375 300.304688 221.925781 300.011719 C 221.777344 299.960938 221.628906 300.011719 221.480469 299.960938 Z M 211.003906 283.546875 C 210.753906 284.636719 211.445312 285.722656 212.535156 285.972656 L 228.15625 289.382812 C 228.304688 289.429688 228.453125 289.429688 228.601562 289.429688 C 228.648438 289.429688 228.699219 289.382812 228.796875 289.382812 C 229.636719 289.332031 230.378906 288.738281 230.628906 287.847656 C 230.875 286.761719 230.183594 285.675781 229.046875 285.425781 L 228.796875 285.378906 L 213.425781 282.015625 C 212.335938 281.769531 211.25 282.460938 211.003906 283.546875 Z M 211.003906 283.546875 " fill-opacity="1" fill-rule="evenodd"/><path fill="#22a4f1" d="M 150.59375 289.085938 L 201.015625 300.109375 L 219.554688 304.164062 L 228.203125 306.039062 C 233.148438 307.128906 237.203125 309.75 239.082031 313.011719 C 239.820312 314.34375 240.5625 316.371094 239.820312 318.695312 C 238.4375 322.847656 232.949219 325.765625 226.375 325.765625 C 225.289062 325.765625 224.152344 325.566406 223.015625 325.417969 C 222.519531 325.320312 221.976562 325.367188 221.480469 325.222656 L 218.269531 324.527344 L 163.101562 312.417969 L 158.109375 311.328125 L 143.921875 308.214844 C 138.976562 307.128906 134.925781 304.558594 133.046875 301.246094 C 132.304688 299.960938 131.5625 297.882812 132.304688 295.5625 C 133.195312 292.941406 135.8125 290.914062 139.226562 289.679688 C 140.460938 289.234375 141.84375 288.9375 143.277344 288.738281 C 144.121094 288.640625 144.859375 288.441406 145.75 288.441406 C 147.382812 288.441406 149.011719 288.640625 150.59375 288.984375 Z M 213.128906 310.6875 L 228.15625 313.949219 C 228.304688 314 228.453125 314 228.601562 314 C 229.539062 314 230.378906 313.355469 230.578125 312.417969 C 230.824219 311.328125 230.132812 310.242188 228.996094 309.996094 L 213.324219 306.535156 C 212.238281 306.289062 211.152344 306.980469 210.902344 308.066406 C 210.855469 308.414062 211.003906 308.660156 211.101562 308.957031 C 211.300781 309.648438 211.742188 310.292969 212.484375 310.488281 L 213.128906 310.636719 Z M 213.128906 310.6875 " fill-opacity="1" fill-rule="evenodd"/><path fill="#22a4f1" d="M 159.296875 316.222656 L 220.046875 329.570312 L 224.597656 330.558594 L 228.203125 331.351562 C 233.097656 332.4375 237.203125 335.007812 239.082031 338.320312 C 239.820312 339.65625 240.5625 341.683594 239.820312 344.003906 C 238.4375 348.15625 232.949219 351.074219 226.425781 351.074219 C 225.585938 351.074219 224.746094 350.875 223.90625 350.777344 C 223.164062 350.679688 222.324219 350.679688 221.53125 350.53125 L 219.851562 350.136719 L 150.941406 335.007812 L 146.984375 334.167969 L 143.921875 333.476562 C 138.976562 332.386719 134.925781 329.816406 133.046875 326.507812 C 131.957031 324.628906 131.710938 322.648438 132.304688 320.820312 C 133.6875 316.667969 139.175781 313.753906 145.699219 313.753906 C 147.332031 313.753906 148.964844 313.949219 150.546875 314.296875 L 154.796875 315.234375 L 159.246094 316.222656 Z M 213.425781 331.796875 C 212.335938 331.546875 211.25 332.242188 211.003906 333.328125 C 210.753906 334.464844 211.445312 335.503906 212.535156 335.75 L 221.433594 337.679688 L 225.585938 338.566406 L 228.15625 339.160156 C 228.304688 339.210938 228.453125 339.210938 228.601562 339.210938 C 229.539062 339.210938 230.378906 338.566406 230.578125 337.628906 C 230.824219 336.539062 230.132812 335.453125 228.996094 335.207031 L 225.089844 334.367188 L 220.9375 333.425781 L 213.324219 331.796875 Z M 213.425781 331.796875 " fill-opacity="1" fill-rule="evenodd"/><path fill="#22a4f1" d="M 150.496094 339.113281 L 218.417969 353.992188 C 212.832031 366.347656 200.472656 375 186.039062 375 C 166.414062 375 150.445312 359.03125 150.445312 339.40625 C 150.445312 339.308594 150.496094 339.210938 150.496094 339.113281 Z M 179.808594 367.386719 C 180.15625 366.300781 179.511719 365.164062 178.476562 364.867188 C 170.269531 362.394531 163.746094 356.117188 160.976562 348.007812 C 160.582031 346.972656 159.445312 346.425781 158.40625 346.722656 C 157.367188 347.070312 156.773438 348.257812 157.121094 349.292969 C 160.332031 358.636719 167.898438 365.902344 177.339844 368.722656 C 177.535156 368.769531 177.734375 368.820312 177.929688 368.820312 C 178.820312 368.820312 179.613281 368.277344 179.859375 367.335938 Z M 179.808594 367.386719 " fill-opacity="1" fill-rule="evenodd"/><path fill="#22a4f1" d="M 245.902344 221.261719 C 235.769531 235.550781 227.066406 247.90625 226.425781 257.597656 L 226.425781 275.886719 L 229.441406 276.527344 L 233.496094 277.417969 L 238.140625 278.457031 L 238.140625 257.992188 C 238.386719 255.027344 240.414062 250.824219 243.382812 245.878906 C 246.59375 240.542969 250.945312 234.363281 255.441406 227.984375 C 256.828125 226.058594 257.964844 224.378906 258.753906 223.289062 C 260.039062 221.460938 261.175781 219.828125 262.066406 218.542969 C 267.304688 210.929688 274.621094 198.917969 279.765625 185.175781 C 283.371094 175.488281 285.941406 164.910156 285.941406 154.429688 C 285.941406 127.289062 274.917969 102.671875 257.074219 84.875 C 239.230469 67.03125 214.660156 56.007812 187.472656 56.007812 C 160.332031 56.007812 135.714844 67.03125 117.917969 84.875 C 100.074219 102.722656 89.050781 127.289062 89.050781 154.429688 C 89.050781 164.957031 91.621094 175.488281 95.230469 185.226562 C 100.371094 199.019531 107.6875 210.980469 112.925781 218.59375 C 113.71875 219.730469 114.855469 221.410156 116.238281 223.339844 C 116.980469 224.425781 118.214844 226.105469 119.550781 228.035156 C 123.160156 233.125 126.667969 238.121094 129.488281 242.46875 C 132.304688 246.820312 134.527344 250.824219 135.8125 254.234375 L 136.554688 256.164062 L 138.582031 256.609375 L 143.179688 257.597656 L 149.410156 258.980469 L 147.679688 252.851562 C 146.394531 248.351562 143.871094 243.410156 140.511719 238.019531 C 137.246094 232.730469 133.292969 227.195312 129.140625 221.261719 C 127.757812 219.285156 126.621094 217.703125 125.878906 216.664062 C 124.988281 215.378906 123.902344 213.847656 122.664062 212.019531 C 118.5625 206.039062 113.074219 197.1875 108.625 186.957031 C 104.226562 176.871094 100.816406 165.550781 100.863281 154.429688 C 100.863281 130.503906 110.601562 108.800781 126.273438 93.132812 C 141.945312 77.460938 163.644531 67.722656 187.570312 67.722656 C 211.496094 67.722656 233.148438 77.460938 248.867188 93.132812 C 264.585938 108.851562 274.324219 130.554688 274.324219 154.429688 C 274.324219 163.523438 272.050781 172.769531 268.839844 181.320312 C 264.144531 193.828125 257.320312 204.902344 252.527344 211.96875 C 251.09375 214.046875 249.015625 216.960938 246.988281 219.878906 L 246.050781 221.261719 Z M 245.902344 221.261719 " fill-opacity="1" fill-rule="nonzero"/><path fill="#0076b7" d="M 189.101562 44.144531 C 193.15625 44.144531 196.46875 40.832031 196.46875 36.777344 L 196.46875 7.367188 C 196.46875 3.3125 193.15625 0 189.101562 0 C 185.050781 0 181.738281 3.3125 181.738281 7.367188 L 181.738281 36.777344 C 181.738281 40.832031 185.050781 44.144531 189.101562 44.144531 Z M 217.230469 49.828125 C 213.472656 48.296875 211.695312 43.945312 213.226562 40.238281 L 224.449219 13.050781 C 225.980469 9.292969 230.332031 7.515625 234.039062 9.046875 C 237.796875 10.578125 239.574219 14.929688 238.042969 18.636719 L 226.820312 45.824219 C 225.289062 49.582031 220.9375 51.359375 217.230469 49.828125 Z M 157.714844 51.113281 C 161.46875 49.582031 163.25 45.230469 161.71875 41.523438 L 150.496094 14.335938 C 148.964844 10.578125 144.613281 8.800781 140.90625 10.332031 C 137.148438 11.863281 135.371094 16.214844 136.902344 19.921875 L 148.125 47.109375 C 149.65625 50.867188 154.003906 52.644531 157.714844 51.113281 Z M 157.714844 51.113281 " fill-opacity="1" fill-rule="evenodd"/><path fill="#0076b7" d="M 183.515625 129.859375 C 183.664062 128.625 184.800781 127.785156 186.039062 127.933594 C 187.273438 128.082031 188.113281 129.21875 187.964844 130.453125 C 187.667969 132.726562 188.3125 134.902344 189.597656 136.632812 C 190.882812 138.3125 192.8125 139.550781 195.085938 139.847656 C 196.320312 139.996094 197.160156 141.132812 197.011719 142.367188 C 196.863281 143.601562 195.726562 144.445312 194.492188 144.296875 C 190.980469 143.800781 188.015625 141.972656 186.039062 139.351562 C 186.039062 139.300781 185.988281 139.300781 185.988281 139.253906 C 183.222656 140.09375 177.882812 140.882812 174.273438 136.089844 C 173.53125 135.101562 173.730469 133.667969 174.71875 132.925781 C 175.707031 132.183594 177.140625 132.382812 177.882812 133.371094 C 179.613281 135.644531 182.230469 135.546875 183.960938 135.148438 C 183.46875 133.46875 183.320312 131.691406 183.566406 129.859375 Z M 224.644531 134.902344 Z M 188.066406 116.167969 Z M 184.210938 113.84375 Z M 143.921875 167.726562 Z M 146.886719 148.347656 Z M 150.742188 146.027344 Z M 146.542969 171.386719 Z M 220 166.492188 C 222.472656 164.019531 224.003906 160.609375 224.003906 156.800781 C 224.003906 153.046875 222.472656 149.632812 220 147.113281 C 217.527344 144.640625 214.117188 143.109375 210.308594 143.109375 C 209.074219 143.109375 208.035156 142.121094 208.035156 140.835938 C 208.035156 139.597656 209.074219 138.5625 210.308594 138.5625 C 215.351562 138.5625 219.898438 140.589844 223.164062 143.898438 C 226.476562 147.210938 228.5 151.761719 228.5 156.753906 C 228.5 158.136719 228.351562 159.472656 228.058594 160.757812 C 229.441406 161.152344 230.875 161.398438 232.40625 161.398438 C 240.414062 161.398438 246.988281 155.21875 247.632812 147.359375 C 251.09375 145.285156 253.414062 141.476562 253.414062 137.128906 C 253.414062 131.988281 250.152344 127.585938 245.605469 125.957031 C 244.023438 128.921875 241.652344 131.292969 238.882812 132.976562 C 234.878906 135.347656 229.984375 136.1875 225.089844 134.953125 L 224.894531 134.902344 L 224.644531 134.753906 C 223.558594 134.210938 223.0625 132.828125 223.65625 131.738281 C 224.152344 130.800781 225.238281 130.304688 226.226562 130.554688 C 229.886719 131.492188 233.59375 130.847656 236.609375 129.070312 C 239.625 127.289062 241.949219 124.375 242.886719 120.714844 C 243.382812 118.789062 243.429688 116.8125 243.085938 114.933594 C 241.355469 110.679688 238.042969 106.824219 233.59375 104.253906 C 233.394531 104.207031 233.199219 104.15625 233 104.105469 C 232.503906 103.957031 232.0625 103.710938 231.765625 103.316406 C 231.21875 103.066406 230.628906 102.773438 230.035156 102.574219 C 223.707031 100.152344 217.082031 100.546875 211.84375 103.117188 C 209.125 98.964844 204.425781 96.246094 199.089844 96.246094 C 195.828125 96.246094 192.8125 97.285156 190.339844 99.015625 C 190.785156 100.152344 191.082031 101.339844 191.277344 102.523438 C 192.019531 107.121094 191.03125 111.964844 188.113281 116.070312 C 187.472656 116.957031 186.285156 117.304688 185.296875 116.761719 C 184.210938 116.21875 183.714844 114.832031 184.308594 113.746094 L 184.507812 113.449219 C 186.730469 110.382812 187.472656 106.675781 186.878906 103.265625 C 186.53125 101.289062 185.792969 99.359375 184.605469 97.679688 C 182.132812 96 179.167969 95.011719 176.003906 95.011719 C 167.898438 95.011719 161.222656 101.339844 160.730469 109.347656 C 158.109375 107.21875 154.746094 105.933594 151.140625 105.933594 C 150.546875 105.933594 150 105.984375 149.457031 106.035156 C 149.210938 106.230469 148.964844 106.378906 148.617188 106.429688 C 144.960938 107.367188 142.042969 109.691406 140.261719 112.707031 C 138.484375 115.722656 137.839844 119.429688 138.78125 123.089844 C 139.71875 126.746094 142.042969 129.664062 145.058594 131.441406 C 148.074219 133.222656 151.78125 133.863281 155.4375 132.925781 L 155.734375 132.875 L 156.03125 132.875 C 157.269531 132.875 158.304688 133.863281 158.304688 135.148438 C 158.304688 136.238281 157.515625 137.175781 156.527344 137.375 C 151.683594 138.5625 146.839844 137.722656 142.832031 135.347656 C 138.828125 132.976562 135.714844 129.070312 134.480469 124.175781 L 134.429688 123.878906 C 134.234375 123.089844 134.132812 122.296875 134.035156 121.507812 C 127.066406 122.941406 121.824219 129.070312 121.824219 136.484375 C 121.824219 140.785156 123.605469 144.742188 126.519531 147.507812 C 124.347656 150.128906 123.0625 153.488281 123.0625 157.199219 C 123.0625 159.621094 123.605469 161.941406 124.640625 163.96875 C 124.839844 164.117188 124.988281 164.265625 125.136719 164.464844 C 127.3125 167.527344 130.574219 169.40625 134.035156 170 C 137.496094 170.59375 141.152344 169.804688 144.21875 167.628906 C 147.28125 165.453125 149.160156 162.191406 149.753906 158.78125 C 150.347656 155.320312 149.558594 151.660156 147.382812 148.597656 L 147.183594 148.300781 C 146.640625 147.164062 147.085938 145.828125 148.171875 145.285156 C 149.160156 144.789062 150.398438 145.085938 150.992188 145.976562 C 153.90625 150.078125 154.894531 154.921875 154.152344 159.519531 C 153.414062 164.117188 150.890625 168.417969 146.789062 171.335938 C 146.246094 171.730469 145.699219 172.078125 145.109375 172.421875 C 145.109375 172.570312 145.109375 172.71875 145.109375 172.867188 C 145.109375 181.320312 151.929688 188.144531 160.382812 188.144531 C 164.882812 188.144531 168.933594 186.214844 171.703125 183.101562 L 171.902344 182.851562 C 172.148438 182.953125 172.394531 183.101562 172.59375 183.199219 C 172.839844 191.453125 170.21875 201.6875 164.585938 213.945312 C 177.832031 206.234375 187.421875 193.628906 193.402344 176.230469 C 193.699219 176.230469 193.996094 176.277344 194.34375 176.277344 C 198.695312 176.277344 202.5 173.90625 204.574219 170.445312 C 204.132812 167.429688 202.746094 164.761719 200.71875 162.683594 C 198.25 160.210938 194.835938 158.679688 191.03125 158.679688 C 189.796875 158.679688 188.757812 157.640625 188.757812 156.40625 C 188.757812 155.171875 189.746094 154.132812 191.03125 154.132812 C 196.074219 154.132812 200.621094 156.160156 203.882812 159.472656 C 206.800781 162.386719 208.726562 166.242188 209.125 170.59375 C 209.222656 170.644531 209.320312 170.691406 209.421875 170.742188 C 209.71875 170.59375 210.113281 170.496094 210.457031 170.496094 C 214.214844 170.496094 217.625 168.960938 220.148438 166.492188 Z M 200.917969 115.328125 C 200.175781 114.339844 200.375 112.90625 201.363281 112.164062 C 202.351562 111.421875 203.785156 111.621094 204.527344 112.609375 C 206.257812 114.882812 208.875 114.785156 210.605469 114.386719 C 210.113281 112.707031 209.964844 110.929688 210.210938 109.097656 C 210.359375 107.863281 211.496094 107.023438 212.730469 107.171875 C 213.96875 107.320312 214.808594 108.457031 214.660156 109.691406 C 214.363281 111.964844 215.007812 114.140625 216.292969 115.871094 C 217.578125 117.550781 219.503906 118.738281 221.777344 119.085938 C 223.015625 119.234375 223.855469 120.371094 223.707031 121.605469 C 223.558594 122.839844 222.421875 123.683594 221.183594 123.535156 C 217.675781 123.039062 214.710938 121.210938 212.730469 118.589844 C 212.730469 118.539062 212.683594 118.539062 212.683594 118.492188 C 209.914062 119.332031 204.574219 120.121094 200.96875 115.328125 Z M 163.347656 156.949219 C 166.859375 157.445312 169.824219 159.273438 171.800781 161.894531 C 171.800781 161.941406 171.851562 161.941406 171.851562 161.992188 C 174.621094 161.152344 179.957031 160.359375 183.566406 165.15625 C 184.308594 166.144531 184.109375 167.578125 183.121094 168.320312 C 182.132812 169.0625 180.699219 168.863281 179.957031 167.875 C 178.226562 165.601562 175.609375 165.699219 173.878906 166.09375 C 174.371094 167.777344 174.519531 169.554688 174.273438 171.386719 C 174.125 172.621094 172.988281 173.460938 171.753906 173.3125 C 170.515625 173.164062 169.675781 172.027344 169.824219 170.792969 C 170.121094 168.519531 169.476562 166.34375 168.191406 164.613281 C 166.90625 162.933594 164.980469 161.746094 162.707031 161.398438 C 161.46875 161.25 160.628906 160.113281 160.777344 158.878906 C 160.925781 157.640625 162.0625 156.800781 163.300781 156.949219 Z M 163.347656 156.949219 " fill-opacity="1" fill-rule="evenodd"/></svg>
